# xmcd CD database file
#
# Track frame offsets:
#	150
#	11962
#	22604
#	41645
#	56325
#	72505
#	88039
#	104699
#	120666
#	133511
#	146661
#	158962
#	174761
#
# Disc length: 2475 seconds
#
# Revision: 0
# Processed by: cddbd v1.5.2PL0 Copyright (c) Steve Scherf et al.
# Submitted via: CDex 1.51
#
DISCID=ac09a90d
DTITLE=Freud Marx Engals and Jung - Takamehtien mekatähtiä (rematered)
DYEAR=1988
DGENRE=Country
TTITLE0=Rakkautta yltympäriinsä
TTITLE1=Selkä vääränä
TTITLE2=Mystinen metsätyömies
TTITLE3=Mbaqangaa
TTITLE4=Haurutettua kateenkorvaa
TTITLE5=Mustelmilla
TTITLE6=Rautatieseikkailu 2001
TTITLE7=Ei semmoisia judeja kuin jeesus enään oo
TTITLE8=Ei kai Hectirillakaan ole helppoa
TTITLE9=Mustasukkaisuus blues
TTITLE10=Niin kauas kuin tunteet vie meidät
TTITLE11=Soittoruokaloiden naiset
TTITLE12=Tänä yönä pullo petti mun (bonus)
EXTD=YEAR: 1988
EXTT0=
EXTT1=
EXTT2=
EXTT3=
EXTT4=
EXTT5=
EXTT6=
EXTT7=
EXTT8=
EXTT9=
EXTT10=
EXTT11=
EXTT12=
PLAYORDER=
